<?xml version="1.0" encoding="UTF-8"?>
<svg xmlns="http://www.w3.org/2000/svg" xmlns:xlink="http://www.w3.org/1999/xlink" width="288pt" height="288pt" viewBox="0 0 288 288" version="1.1">
<g id="surface463">
<rect x="0" y="0" width="288" height="288" style="fill:rgb(100%,100%,100%);fill-opacity:1;stroke:none;"/>
<path style="fill-rule:nonzero;fill:rgb(82.745098%,82.745098%,82.745098%);fill-opacity:1;stroke-width:1;stroke-linecap:butt;stroke-linejoin:miter;stroke:rgb(0%,0%,0%);stroke-opacity:1;stroke-miterlimit:10;" d="M 2.824219 204.363281 L 2.824219 164.453125 L 42.730469 164.453125 L 42.730469 204.363281 Z M 2.824219 204.363281 "/>
<path style="fill-rule:nonzero;fill:rgb(92.54902%,92.54902%,92.54902%);fill-opacity:1;stroke-width:1;stroke-linecap:butt;stroke-linejoin:miter;stroke:rgb(0%,0%,0%);stroke-opacity:1;stroke-dasharray:5,3;stroke-miterlimit:10;" d="M 2.824219 123.546875 L 2.824219 83.636719 L 42.730469 83.636719 L 42.730469 123.546875 Z M 2.824219 123.546875 "/>
<path style="fill-rule:nonzero;fill:rgb(82.745098%,82.745098%,82.745098%);fill-opacity:1;stroke-width:1;stroke-linecap:butt;stroke-linejoin:miter;stroke:rgb(0%,0%,0%);stroke-opacity:1;stroke-miterlimit:10;" d="M 83.636719 285.175781 L 83.636719 245.269531 L 123.546875 245.269531 L 123.546875 285.175781 Z M 83.636719 285.175781 "/>
<path style="fill-rule:nonzero;fill:rgb(52.941176%,80.784314%,98.039216%);fill-opacity:1;stroke-width:1;stroke-linecap:butt;stroke-linejoin:miter;stroke:rgb(0%,0%,0%);stroke-opacity:1;stroke-miterlimit:10;" d="M 83.636719 204.363281 L 83.636719 164.453125 L 123.546875 164.453125 L 123.546875 204.363281 Z M 83.636719 204.363281 "/>
<path style="fill-rule:nonzero;fill:rgb(71.764706%,88.235294%,98.823529%);fill-opacity:1;stroke-width:1;stroke-linecap:butt;stroke-linejoin:miter;stroke:rgb(0%,0%,0%);stroke-opacity:1;stroke-dasharray:5,3;stroke-miterlimit:10;" d="M 83.636719 123.546875 L 83.636719 83.636719 L 123.546875 83.636719 L 123.546875 123.546875 Z M 83.636719 123.546875 "/>
<path style="fill-rule:nonzero;fill:rgb(82.745098%,82.745098%,82.745098%);fill-opacity:1;stroke-width:1;stroke-linecap:butt;stroke-linejoin:miter;stroke:rgb(0%,0%,0%);stroke-opacity:1;stroke-miterlimit:10;" d="M 83.636719 42.730469 L 83.636719 2.824219 L 123.546875 2.824219 L 123.546875 42.730469 Z M 83.636719 42.730469 "/>
<path style="fill-rule:nonzero;fill:rgb(82.745098%,82.745098%,82.745098%);fill-opacity:1;stroke-width:1;stroke-linecap:butt;stroke-linejoin:miter;stroke:rgb(0%,0%,0%);stroke-opacity:1;stroke-miterlimit:10;" d="M 164.453125 285.175781 L 164.453125 245.269531 L 204.363281 245.269531 L 204.363281 285.175781 Z M 164.453125 285.175781 "/>
<path style="fill-rule:nonzero;fill:rgb(52.941176%,80.784314%,98.039216%);fill-opacity:1;stroke-width:1;stroke-linecap:butt;stroke-linejoin:miter;stroke:rgb(0%,0%,0%);stroke-opacity:1;stroke-miterlimit:10;" d="M 164.453125 204.363281 L 164.453125 164.453125 L 204.363281 164.453125 L 204.363281 204.363281 Z M 164.453125 204.363281 "/>
<path style="fill-rule:nonzero;fill:rgb(71.764706%,88.235294%,98.823529%);fill-opacity:1;stroke-width:1;stroke-linecap:butt;stroke-linejoin:miter;stroke:rgb(0%,0%,0%);stroke-opacity:1;stroke-dasharray:5,3;stroke-miterlimit:10;" d="M 164.453125 123.546875 L 164.453125 83.636719 L 204.363281 83.636719 L 204.363281 123.546875 Z M 164.453125 123.546875 "/>
<path style="fill-rule:nonzero;fill:rgb(82.745098%,82.745098%,82.745098%);fill-opacity:1;stroke-width:1;stroke-linecap:butt;stroke-linejoin:miter;stroke:rgb(0%,0%,0%);stroke-opacity:1;stroke-miterlimit:10;" d="M 164.453125 42.730469 L 164.453125 2.824219 L 204.363281 2.824219 L 204.363281 42.730469 Z M 164.453125 42.730469 "/>
<path style="fill-rule:nonzero;fill:rgb(82.745098%,82.745098%,82.745098%);fill-opacity:1;stroke-width:1;stroke-linecap:butt;stroke-linejoin:miter;stroke:rgb(0%,0%,0%);stroke-opacity:1;stroke-miterlimit:10;" d="M 245.269531 204.363281 L 245.269531 164.453125 L 285.175781 164.453125 L 285.175781 204.363281 Z M 245.269531 204.363281 "/>
<path style="fill-rule:nonzero;fill:rgb(82.745098%,82.745098%,82.745098%);fill-opacity:1;stroke-width:1;stroke-linecap:butt;stroke-linejoin:miter;stroke:rgb(0%,0%,0%);stroke-opacity:1;stroke-miterlimit:10;" d="M 245.269531 123.546875 L 245.269531 83.636719 L 285.175781 83.636719 L 285.175781 123.546875 Z M 245.269531 123.546875 "/>
<path style="fill:none;stroke-width:1;stroke-linecap:butt;stroke-linejoin:miter;stroke:rgb(0%,0%,0%);stroke-opacity:1;stroke-miterlimit:10;" d="M 88.730469 24.375 L 190.734375 188.421875 "/>
<path style=" stroke:none;fill-rule:nonzero;fill:rgb(0%,0%,0%);fill-opacity:1;" d="M 93.910156 32.703125 L 93.625 32.527344 L 93.878906 32.371094 Z M 93.910156 32.703125 "/>
<path style=" stroke:none;fill-rule:nonzero;fill:rgb(0%,0%,0%);fill-opacity:1;" d="M 185.714844 180.34375 L 185.429688 180.167969 L 185.683594 180.011719 Z M 185.714844 180.34375 "/>
<path style="fill:none;stroke-width:1;stroke-linecap:butt;stroke-linejoin:miter;stroke:rgb(0%,0%,0%);stroke-opacity:1;stroke-miterlimit:10;" d="M 169.546875 24.375 L 172.335938 189.324219 "/>
<path style=" stroke:none;fill-rule:nonzero;fill:rgb(0%,0%,0%);fill-opacity:1;" d="M 169.6875 32.769531 L 169.53125 32.476562 L 169.832031 32.46875 Z M 169.6875 32.769531 "/>
<path style=" stroke:none;fill-rule:nonzero;fill:rgb(0%,0%,0%);fill-opacity:1;" d="M 172.199219 181.226562 L 172.042969 180.929688 L 172.34375 180.925781 Z M 172.199219 181.226562 "/>
<path style="fill:none;stroke-width:1;stroke-linecap:butt;stroke-linejoin:miter;stroke:rgb(0%,0%,0%);stroke-opacity:1;stroke-miterlimit:10;" d="M 7.914062 186.003906 L 174.734375 189.324219 "/>
<path style=" stroke:none;fill-rule:nonzero;fill:rgb(0%,0%,0%);fill-opacity:1;" d="M 16.40625 186.171875 L 16.105469 186.316406 L 16.109375 186.015625 Z M 16.40625 186.171875 "/>
<path style=" stroke:none;fill-rule:nonzero;fill:rgb(0%,0%,0%);fill-opacity:1;" d="M 166.542969 189.164062 L 166.238281 189.308594 L 166.246094 189.007812 Z M 166.542969 189.164062 "/>
<path style="fill:none;stroke-width:1;stroke-linecap:butt;stroke-linejoin:miter;stroke:rgb(0%,0%,0%);stroke-opacity:1;stroke-miterlimit:10;" d="M 250.359375 105.1875 L 93.917969 189.324219 "/>
<path style=" stroke:none;fill-rule:nonzero;fill:rgb(0%,0%,0%);fill-opacity:1;" d="M 242.40625 109.464844 L 242.597656 109.191406 L 242.742188 109.457031 Z M 242.40625 109.464844 "/>
<path style=" stroke:none;fill-rule:nonzero;fill:rgb(0%,0%,0%);fill-opacity:1;" d="M 101.609375 185.191406 L 101.800781 184.917969 L 101.941406 185.179688 Z M 101.609375 185.191406 "/>
<path style="fill:none;stroke-width:1;stroke-linecap:butt;stroke-linejoin:miter;stroke:rgb(0%,0%,0%);stroke-opacity:1;stroke-miterlimit:10;" d="M 169.546875 266.820312 L 91.519531 189.324219 "/>
<path style=" stroke:none;fill-rule:nonzero;fill:rgb(0%,0%,0%);fill-opacity:1;" d="M 165.539062 262.839844 L 165.855469 262.941406 L 165.644531 263.15625 Z M 165.539062 262.839844 "/>
<path style=" stroke:none;fill-rule:nonzero;fill:rgb(0%,0%,0%);fill-opacity:1;" d="M 95.316406 193.09375 L 95.632812 193.199219 L 95.421875 193.414062 Z M 95.316406 193.09375 "/>
<path style="fill:none;stroke-width:1;stroke-linecap:butt;stroke-linejoin:miter;stroke:rgb(0%,0%,0%);stroke-opacity:1;stroke-miterlimit:10;" d="M 250.359375 186.003906 L 89.121094 189.324219 "/>
<path style=" stroke:none;fill-rule:nonzero;fill:rgb(0%,0%,0%);fill-opacity:1;" d="M 242.148438 186.171875 L 242.445312 186.015625 L 242.449219 186.316406 Z M 242.148438 186.171875 "/>
<path style=" stroke:none;fill-rule:nonzero;fill:rgb(0%,0%,0%);fill-opacity:1;" d="M 97.035156 189.164062 L 97.328125 189.007812 L 97.335938 189.304688 Z M 97.035156 189.164062 "/>
<path style="fill:none;stroke-width:1;stroke-linecap:butt;stroke-linejoin:miter;stroke:rgb(0%,0%,0%);stroke-opacity:1;stroke-miterlimit:10;" d="M 98.714844 189.324219 L 169.9375 189.324219 "/>
<path style=" stroke:none;fill-rule:nonzero;fill:rgb(0%,0%,0%);fill-opacity:1;" d="M 102.425781 189.324219 L 102.128906 189.476562 L 102.128906 189.175781 Z M 102.425781 189.324219 "/>
<path style=" stroke:none;fill-rule:nonzero;fill:rgb(0%,0%,0%);fill-opacity:1;" d="M 166.523438 189.324219 L 166.226562 189.476562 L 166.226562 189.175781 Z M 166.523438 189.324219 "/>
<path style="fill:none;stroke-width:1;stroke-linecap:butt;stroke-linejoin:miter;stroke:rgb(0%,0%,0%);stroke-opacity:1;stroke-miterlimit:10;" d="M 195.027344 188.421875 L 88.730469 266.820312 "/>
<path style=" stroke:none;fill-rule:nonzero;fill:rgb(0%,0%,0%);fill-opacity:1;" d="M 189.59375 192.429688 L 189.746094 192.128906 L 189.921875 192.371094 Z M 189.59375 192.429688 "/>
<path style=" stroke:none;fill-rule:nonzero;fill:rgb(0%,0%,0%);fill-opacity:1;" d="M 93.925781 262.988281 L 94.078125 262.6875 L 94.253906 262.929688 Z M 93.925781 262.988281 "/>
</g>
</svg>
